<?xml version="1.0" encoding="UTF-8"?>
<svg version="1.1" xmlns="http://www.w3.org/2000/svg" width="512" height="512">
<path d="M0 0 C0.88487563 0.35121666 1.76975126 0.70243332 2.68144131 1.06429291 C5.63311269 2.23970909 8.57648252 3.43461331 11.52026367 4.62963867 C13.63793295 5.47760081 15.75608956 6.32434676 17.87469482 7.16996765 C23.62020248 9.46723173 29.35874169 11.78145506 35.09617996 14.0987854 C41.11828609 16.52774769 47.14662679 18.94113646 53.17431641 21.35620117 C63.27169157 25.40422799 73.36517944 29.46180424 83.45581055 33.52661133 C97.36683718 39.13031166 111.28455279 44.71722655 125.20424843 50.29935265 C149.51786274 60.05038348 173.8289777 69.80763732 198.1206274 79.61327839 C202.97989105 81.57319342 207.84344796 83.52152649 212.71427631 85.45252228 C214.71475476 86.24620506 216.71373197 87.04353514 218.71214294 87.84240723 C220.9950044 88.75400058 223.28063221 89.6587151 225.56971741 90.55456543 C226.52913742 90.93963257 227.48855743 91.32469971 228.47705078 91.72143555 C229.2894371 92.04245239 230.10182343 92.36346924 230.93882751 92.69421387 C232.87573242 93.73510742 232.87573242 93.73510742 234.87573242 96.73510742 C235.55500952 103.86751699 235.55500952 103.86751699 233.40063477 106.61914062 C229.92683781 109.53031818 226.20320275 110.96285239 222.01635742 112.62573242 C221.1531488 112.97520935 220.28994019 113.32468628 219.40057373 113.68475342 C217.57699957 114.41931087 215.75127535 115.14855026 213.92358398 115.87280273 C211.14233592 116.97850659 208.37234221 118.10949496 205.60229492 119.24291992 C203.82427385 119.95541848 202.04564634 120.66640594 200.26635742 121.37573242 C199.44524475 121.71316467 198.62413208 122.05059692 197.77813721 122.39825439 C192.55991211 124.43580383 188.48341882 125.2122594 182.87573242 124.73510742 C180.37573242 123.23510742 180.37573242 123.23510742 178.87573242 120.73510742 C178.32887023 117.95522463 178.14581773 115.48302155 178.87573242 112.73510742 C182.08831541 108.40692773 186.58386202 106.89408346 191.43823242 104.98510742 C192.20586914 104.66928711 192.97350586 104.3534668 193.7644043 104.02807617 C199.45712109 101.73510742 199.45712109 101.73510742 202.87573242 101.73510742 C202.87573242 101.07510742 202.87573242 100.41510742 202.87573242 99.73510742 C202.23353256 99.64044189 201.5913327 99.54577637 200.92967224 99.44824219 C196.78103758 98.4794819 192.96045183 96.91074223 189.01269531 95.32495117 C188.12039058 94.97046087 187.22808584 94.61597057 186.30874157 94.25073814 C183.32027286 93.0622104 180.33432237 91.86748822 177.34838867 90.67260742 C175.21145126 89.82077661 173.07438349 88.96927274 170.93719482 88.11807251 C166.34243618 86.28711873 161.74881158 84.45335461 157.15591431 82.61773682 C151.13153543 80.21050963 145.10430945 77.81050904 139.07608318 75.41293526 C113.98132023 65.43099204 88.91924491 55.37707102 63.93295479 45.12628937 C56.89821459 42.24313986 49.85785684 39.37372154 42.81777859 36.50363541 C36.10179011 33.7630676 29.39712342 30.99677806 22.69939995 28.21189308 C18.53960315 26.48902193 14.37051447 24.7896244 10.19855499 23.09644699 C8.27130015 22.30845913 6.3480839 21.51050824 4.42940521 20.70186234 C1.81186235 19.59997083 -0.81772297 18.53414515 -3.453125 17.47583008 C-4.20511138 17.14912323 -4.95709776 16.82241638 -5.7318716 16.48580933 C-11.72827251 14.14685258 -15.35212726 15.2264716 -21.12426758 17.73510742 C-22.63295774 18.31515647 -24.14287096 18.89203339 -25.65393066 19.46588135 C-27.27722026 20.10938183 -28.89944161 20.75558164 -30.52075195 21.40405273 C-31.42154197 21.76201085 -32.32233198 22.11996897 -33.25041866 22.4887743 C-36.24060581 23.67779562 -39.22932668 24.87045567 -42.21801758 26.06323242 C-44.36337801 26.91745048 -46.50881136 27.77148544 -48.65431213 28.62535095 C-54.44295844 30.92997315 -60.23024721 33.23798688 -66.01729202 35.54662704 C-69.62254086 36.9844188 -73.22827857 38.42097712 -76.834198 39.85708618 C-103.8278821 50.60773988 -130.80560889 61.39661465 -157.75317383 72.26245117 C-160.02561576 73.17835646 -162.29806643 74.09424009 -164.57052612 75.01010132 C-174.30017541 78.9321385 -184.02856311 82.85719204 -193.75169468 86.79536343 C-197.71065152 88.39782099 -201.67122233 89.99625968 -205.63218498 91.59375191 C-207.4658275 92.33442449 -209.29871645 93.07696573 -211.13080025 93.82148552 C-213.61642638 94.83147207 -216.10449454 95.8351862 -218.59326172 96.83740234 C-219.32006889 97.13462315 -220.04687607 97.43184395 -220.7957077 97.73807144 C-223.73193159 98.91398945 -225.92934303 99.73510742 -229.12426758 99.73510742 C-229.12426758 100.39510742 -229.12426758 101.05510742 -229.12426758 101.73510742 C-228.16096779 101.87710571 -228.16096779 101.87710571 -227.1782074 102.02197266 C-223.02957274 102.99073294 -219.20898699 104.55947262 -215.26123047 106.14526367 C-214.36892573 106.49975397 -213.476621 106.85424427 -212.55727673 107.2194767 C-209.56880802 108.40800445 -206.58285752 109.60272662 -203.59692383 110.79760742 C-201.45998641 111.64943823 -199.32291865 112.5009421 -197.18572998 113.35214233 C-192.59097133 115.18309611 -187.99734674 117.01686023 -183.40444946 118.85247803 C-177.38007059 121.25970521 -171.3528446 123.6597058 -165.32461834 126.05727959 C-140.22985539 136.0392228 -115.16778006 146.09314382 -90.18148994 156.34392548 C-83.14674974 159.22707498 -76.106392 162.0964933 -69.06631374 164.96657944 C-62.35032526 167.70714724 -55.64565857 170.47343678 -48.9479351 173.25832176 C-44.78813831 174.98119291 -40.61904962 176.68059044 -36.44709015 178.37376785 C-34.51983531 179.16175572 -32.59661906 179.95970661 -30.67794037 180.76835251 C-28.06039751 181.87024401 -25.43081219 182.9360697 -22.79541016 183.99438477 C-22.04342378 184.32109161 -21.2914374 184.64779846 -20.51666355 184.98440552 C-14.50605063 187.3289058 -10.90888549 186.24251311 -5.12426758 183.73510742 C-3.43601616 183.08360084 -1.74663142 182.43502535 -0.05627441 181.78900146 C1.81075265 181.04801468 3.67670413 180.30431384 5.54174805 179.55834961 C6.56914093 179.14975204 7.59653381 178.74115448 8.65505981 178.32017517 C12.03167804 176.97655075 15.40684825 175.62932993 18.78198242 174.28198242 C21.14970391 173.33877719 23.51750306 172.39576691 25.88537598 171.45294189 C30.84534322 169.47741347 35.80467079 167.50029207 40.76342773 165.52172852 C46.45020831 163.25269263 52.13793576 160.98604512 57.82624674 158.7208488 C63.34376798 156.52365655 68.86081313 154.32527124 74.37760925 152.12625885 C76.70240706 151.19961533 79.02728503 150.2731729 81.35224915 149.34694672 C83.56496012 148.46522562 85.77745242 147.58295553 87.98970795 146.70009232 C90.0819603 145.86535407 92.1748031 145.03209398 94.26828766 144.2004509 C98.84571545 142.37616979 103.40353833 140.52487666 107.92236328 138.55944824 C108.69251518 138.2280698 109.46266708 137.89669136 110.25615692 137.55527115 C111.64319648 136.95455948 113.02538154 136.34241489 114.4006424 135.71520615 C119.16770052 133.65735464 122.78034852 133.35757484 127.87573242 133.73510742 C130.37573242 135.23510742 130.37573242 135.23510742 131.87573242 137.73510742 C132.53938839 141.45768342 132.6719683 144.47344714 130.61481953 147.73306274 C128.68512653 149.95453376 127.33308791 150.69588321 124.616745 151.76782227 C123.74724716 152.11778763 122.87774933 152.46775299 121.98190308 152.82832336 C120.5539592 153.38159554 120.5539592 153.38159554 119.09716797 153.94604492 C118.09153305 154.34675705 117.08589813 154.74746918 116.04978943 155.1603241 C112.70844551 156.4884297 109.3605797 157.79921009 106.01245117 159.11010742 C103.6667967 160.03864222 101.32157321 160.96826642 98.97676086 161.89892578 C93.40618907 164.10691781 87.83148676 166.30413661 82.25461084 168.49613285 C75.4178581 171.18397627 68.58717754 173.88709952 61.7565918 176.59057617 C54.58719409 179.42789132 47.41696592 182.26296874 40.24142456 185.0847168 C30.46581511 188.93043181 20.69530585 192.78095308 10.98364258 196.78588867 C9.56771201 197.36658262 8.15176345 197.94723272 6.73579407 198.52783203 C4.2865391 199.53295649 1.84703669 200.55480672 -0.59040833 201.58886719 C-1.62920639 202.01611084 -2.66800446 202.44335449 -3.73828125 202.88354492 C-4.59878586 203.24625488 -5.45929047 203.60896484 -6.34587097 203.98266602 C-13.80086135 206.00161588 -19.35494559 204.30666138 -26.24853516 201.47021484 C-27.13341079 201.11899818 -28.01828642 200.76778152 -28.92997646 200.40592194 C-31.88164784 199.23050575 -34.82501768 198.03560154 -37.76879883 196.84057617 C-39.88646811 195.99261404 -42.00462472 195.14586809 -44.12322998 194.30024719 C-49.86873763 192.00298312 -55.60727685 189.68875979 -61.34471512 187.37142944 C-67.36682125 184.94246715 -73.39516194 182.52907839 -79.42285156 180.11401367 C-89.52022673 176.06598685 -99.6137146 172.0084106 -109.7043457 167.94360352 C-123.61537233 162.33990318 -137.53308795 156.75298829 -151.45278358 151.1708622 C-175.76639789 141.41983136 -200.07751286 131.66257753 -224.36916256 121.85693645 C-229.2284262 119.89702142 -234.09198312 117.94868835 -238.96281147 116.01769257 C-240.96328991 115.22400978 -242.96226712 114.42667971 -244.9606781 113.62780762 C-247.24353955 112.71621427 -249.52916737 111.81149974 -251.81825256 110.91564941 C-252.77767258 110.53058228 -253.73709259 110.14551514 -254.72558594 109.7487793 C-255.94416542 109.26725403 -255.94416542 109.26725403 -257.18736267 108.77600098 C-259.12426758 107.73510742 -259.12426758 107.73510742 -261.12426758 104.73510742 C-261.80404595 97.59743456 -261.80404595 97.59743456 -259.63061523 94.84034729 C-256.23796569 91.99064643 -252.66085304 90.62340096 -248.56176758 89.01611328 C-247.68881609 88.66431535 -246.8158646 88.31251741 -245.91646004 87.95005894 C-242.98958394 86.77347569 -240.05702716 85.61178353 -237.12426758 84.44995117 C-235.02519222 83.60972236 -232.92647635 82.76859497 -230.82809448 81.92663574 C-225.12302055 79.64057795 -219.41288041 77.36743123 -213.70174408 75.09656906 C-207.71091218 72.71200698 -201.72476935 70.31572987 -195.73803711 67.92089844 C-183.75387156 63.12942416 -171.76454496 58.35100136 -159.7733711 53.57709891 C-159.13575019 53.32325051 -158.49812928 53.0694021 -157.84118652 52.80786133 C-157.20355397 52.55401183 -156.56592141 52.30016232 -155.90896666 52.03862041 C-148.89746101 49.24703819 -141.8873047 46.45207346 -134.87719727 43.65698242 C-115.68871658 36.00648924 -96.49929558 28.35836661 -77.30395508 20.72509766 C-76.21386768 20.29150783 -75.12378029 19.857918 -74.00065994 19.41118908 C-68.7816301 17.33558603 -63.56183932 15.26194312 -58.340271 13.19273376 C-50.14874136 9.94449801 -41.96278875 6.68948104 -33.82446289 3.30981445 C-32.65037872 2.82593765 -31.47629456 2.34206085 -30.26663208 1.84352112 C-28.24726903 1.00770825 -26.23232081 0.16107335 -24.22384644 -0.70057678 C-23.37645905 -1.05043137 -22.52907166 -1.40028595 -21.65600586 -1.76074219 C-20.61441818 -2.20358803 -20.61441818 -2.20358803 -19.55178833 -2.65538025 C-12.25619844 -4.48718827 -6.72049289 -2.76522392 0 0 Z " fill="#000000" transform="translate(269.124267578125,51.264892578125)"/>
<path d="M0 0 C1.69763482 0.319371 3.39541328 0.63797923 5.09332275 0.95588684 C9.67932535 1.81717527 14.26302891 2.69014252 18.84624696 3.56611347 C22.67798121 4.29749469 26.5107316 5.0234722 30.34346694 5.74958587 C39.38280604 7.46233577 48.42022496 9.18496218 57.45654297 10.91357422 C66.77428053 12.69582079 76.09524455 14.46039472 85.41793519 16.21653104 C93.4329132 17.72702685 101.44568088 19.24886693 109.45679206 20.77973819 C114.23708227 21.69307331 119.01810793 22.60198138 123.8013401 23.49979401 C128.29452152 24.3436372 132.78477757 25.20159906 137.2731781 26.07050133 C138.91975381 26.38679541 140.56730047 26.6980825 142.21584129 27.00396919 C144.46725185 27.42253963 146.71444123 27.85911448 148.96150208 28.300354 C150.21966641 28.54002018 151.47783075 28.77968636 152.77412128 29.02661514 C156.41814876 30.14290241 158.44686145 31.26639289 161.06323242 34.03417969 C161.66894913 36.44616508 161.66894913 36.44616508 161.64190674 39.18234253 C161.64418777 40.22252533 161.64646881 41.26270813 161.64881897 42.33441162 C161.62605392 43.47009583 161.60328888 44.60578003 161.57983398 45.77587891 C161.57586105 46.97626801 161.57188812 48.1766571 161.5677948 49.41342163 C161.55363754 52.70315491 161.51799555 55.99190971 161.47574711 59.2813735 C161.43908712 62.72718319 161.43775996 66.17295105 161.43499756 69.618927 C161.41886735 81.35393392 161.341 93.08826986 161.23168945 104.82275391 C161.17167402 111.3060361 161.14414775 117.78868016 161.15075469 124.27224362 C161.15255884 127.70157222 161.13666391 131.1288761 161.0792923 134.55776596 C161.02185624 138.38415013 161.01940135 142.20697286 161.02905273 146.03369141 C160.98275978 147.73114502 160.98275978 147.73114502 160.93553162 149.46289062 C160.91836167 155.32584507 160.91836167 155.32584507 164.05056 160.00073624 C166.42514677 161.6234352 166.42514677 161.6234352 168.89280319 162.8506031 C173.94660414 165.60653745 175.51363201 170.81782932 177.06323242 176.03417969 C178.60173524 185.58778592 178.13121054 194.83024534 175.06323242 204.03417969 C174.63111718 210.2576359 175.3194333 216.42121745 176.08886719 222.58959961 C176.19776276 223.49811172 176.30665833 224.40662384 176.41885376 225.34266663 C176.65392587 227.29897992 176.89136246 229.2550103 177.13095284 231.21077538 C177.50998831 234.30836731 177.88180698 237.40675048 178.25169373 240.50544739 C179.30396337 249.30979457 180.36924068 258.11255295 181.43896484 266.91479492 C182.09443156 272.31244709 182.74170316 277.71103277 183.38410759 283.11025429 C183.63007411 285.1627203 183.87927988 287.21480084 184.13180733 289.26646996 C184.48451026 292.13243406 184.82685467 294.99946481 185.16699219 297.86694336 C185.27344559 298.71020172 185.37989899 299.55346008 185.48957825 300.42227173 C186.13739941 306.00785107 186.68357395 310.89114734 183.12573242 315.59667969 C171.21165812 325.07931025 157.72759248 326.23815014 143.06323242 325.03417969 C135.18787916 323.55334403 128.23387102 320.16416427 122.06323242 315.03417969 C117.59302548 306.0937658 122.09015751 289.6408559 123.25073242 280.04980469 C123.47573826 278.1394784 123.69992574 276.22905557 123.92333984 274.31854248 C124.5089439 269.32369009 125.10255265 264.32982832 125.69885254 259.33624268 C126.65442293 251.33234026 127.60274682 243.32761113 128.54141235 235.32170868 C128.8692554 232.54221766 129.20366484 229.76357144 129.53857422 226.98492432 C129.74108033 225.26862795 129.94332388 223.55230059 130.14526367 221.8359375 C130.23877106 221.07520432 130.33227844 220.31447113 130.42861938 219.53068542 C131.53135399 210.11163264 131.53135399 210.11163264 130.12573242 200.84667969 C127.21358183 190.39719816 127.31183416 179.84716585 131.37573242 169.78417969 C135.03130299 163.82695358 137.66963461 161.23097859 144.06323242 158.03417969 C144.06323242 121.07417969 144.06323242 84.11417969 144.06323242 46.03417969 C121.68340405 41.7614335 121.68340405 41.7614335 99.3034668 37.48925781 C89.39509761 35.59795954 79.48674653 33.70656661 69.57848465 31.81470621 C65.86818411 31.10628626 62.15786211 30.39797907 58.4474926 29.68992043 C56.97914474 29.40970645 55.51079719 29.12949087 54.04244995 28.84927368 C53.32031276 28.71146441 52.59817556 28.57365514 51.85415542 28.43166983 C47.51900485 27.60423186 43.1840685 26.77568193 38.84929407 25.94627583 C26.16563928 23.51966346 13.48168525 21.09743032 0.77954102 18.76904297 C-0.98254674 18.44407272 -2.74461735 18.1190094 -4.50666809 17.7938385 C-7.57175638 17.22842234 -10.63855005 16.67431961 -13.70707703 16.12791443 C-15.01850318 15.88690333 -16.32985467 15.64548542 -17.64111328 15.40356445 C-18.72818069 15.20835709 -19.81524811 15.01314972 -20.93525696 14.81202698 C-24.90883738 13.78226592 -28.714821 12.52176682 -31.37426758 9.28417969 C-32.21994482 5.90147073 -31.7912626 3.39112441 -30.93676758 0.03417969 C-23.34690984 -7.12730323 -9.20763533 -1.76961799 0 0 Z M147.89526367 176.10058594 C145.55931835 179.84108687 145.62465865 182.21887659 145.75073242 186.59667969 C145.77522461 187.89734375 145.7997168 189.19800781 145.82495117 190.53808594 C145.96831097 194.15317712 145.96831097 194.15317712 147.06323242 198.03417969 C151.02323242 198.03417969 154.98323242 198.03417969 159.06323242 198.03417969 C160.058235 194.05416937 160.29867757 190.68869774 160.37573242 186.59667969 C160.43180664 184.64955078 160.43180664 184.64955078 160.48901367 182.66308594 C160.00065352 178.50082375 159.06858309 176.89873915 156.06323242 174.03417969 C152.18337555 173.22587617 150.78945608 173.34197731 147.89526367 176.10058594 Z M148.06323242 215.03417969 C146.75669246 226.17778927 145.45262341 237.32168496 144.15171814 248.46595383 C143.54759458 253.64053196 142.94261665 258.81500725 142.33569336 263.98925781 C141.75013775 268.98161137 141.16681703 273.97422142 140.58505249 278.96701813 C140.36257697 280.87291034 140.13929294 282.77870836 139.91519165 284.6844101 C139.60172795 287.35121169 139.29112661 290.0183321 138.98120117 292.68554688 C138.88769379 293.47532928 138.7941864 294.26511169 138.69784546 295.0788269 C138.31079903 298.43271968 138.06323242 301.65195323 138.06323242 305.03417969 C145.36982313 308.54134323 154.29427905 309.94577908 162.16113281 307.33901978 C163.21288696 306.92829727 163.21288696 306.92829727 164.28588867 306.50927734 C164.99624268 306.23443512 165.70659668 305.9595929 166.43847656 305.67642212 C166.974646 305.46448212 167.51081543 305.25254211 168.06323242 305.03417969 C166.46845922 286.85136907 164.34163448 268.73305973 162.21740723 250.60644531 C161.74642195 246.58319723 161.27799662 242.55965109 160.80932617 238.53613281 C159.89640151 230.70186222 158.98073992 222.86791488 158.06323242 215.03417969 C154.76323242 215.03417969 151.46323242 215.03417969 148.06323242 215.03417969 Z " fill="#000000" transform="translate(278.936767578125,138.9658203125)"/>
<path d="M0 0 C0.66 -0.0103125 1.32 -0.020625 2 -0.03125 C5.06678745 0.78336542 6.09196689 1.94781833 8 4.5 C8.58653028 7.58664082 8.50511366 10.63343003 8.45410156 13.76660156 C8.45468567 14.70352844 8.45526978 15.64045532 8.45587158 16.60577393 C8.45308596 19.70110181 8.42197092 22.79546545 8.390625 25.890625 C8.38316432 28.03724644 8.37747057 30.18387469 8.37347412 32.33050537 C8.35820425 37.97939876 8.31891038 43.62788053 8.2746582 49.27661133 C8.23373492 55.04112174 8.21546937 60.80569869 8.1953125 66.5703125 C8.15241776 77.88038915 8.08414974 89.19016034 8 100.5 C8.59731934 100.78810547 9.19463867 101.07621094 9.81005859 101.37304688 C12.26772476 102.63777229 14.49506917 104.15635228 16.76855469 105.72314453 C48.32056371 127.42448688 86.76063609 142.46627208 125.453125 142.703125 C126.22723724 142.71013931 127.00134949 142.71715363 127.79891968 142.72438049 C130.28267312 142.74177625 132.76618788 142.74823265 135.25 142.75 C136.10003601 142.75067474 136.95007202 142.75134949 137.8258667 142.75204468 C150.77018886 142.73572279 163.30704 142.25233425 176 139.5 C177.22178955 139.24259033 177.22178955 139.24259033 178.46826172 138.97998047 C207.555379 132.69284811 237.53556962 121.0740313 260.46875 101.64453125 C262 100.5 262 100.5 264 100.5 C263.99111755 99.30618713 263.98223511 98.11237427 263.9730835 96.88238525 C263.89205261 85.64054952 263.83206093 74.39877292 263.79275131 63.15671158 C263.77186252 57.37681166 263.74352088 51.5971472 263.69824219 45.81738281 C263.65483114 40.24122549 263.63087263 34.66529487 263.62049103 29.08898163 C263.61309118 26.95986104 263.59864125 24.83075309 263.57707977 22.70172882 C263.54810922 19.72307875 263.54404139 16.74536949 263.54589844 13.76660156 C263.53151733 12.88331177 263.51713623 12.00002197 263.50231934 11.08996582 C263.54274051 5.11162947 263.54274051 5.11162947 265.90338135 1.95404053 C268.16926168 0.38261416 269.27060664 -0.04264677 272 0 C272.99 -0.01546875 272.99 -0.01546875 274 -0.03125 C277.0947464 0.79079201 278.0853905 1.90460303 280 4.5 C280.61517828 7.80032509 280.55644817 11.07244346 280.53344727 14.42163086 C280.54206284 15.42855484 280.55067841 16.43547882 280.55955505 17.47291565 C280.58227116 20.80381931 280.57546528 24.13388545 280.56640625 27.46484375 C280.5716395 29.77885692 280.57791488 32.09286796 280.58518982 34.40687561 C280.59560464 39.25825025 280.59101709 44.10933177 280.57641602 48.96069336 C280.55923152 55.17975241 280.58271466 61.39788732 280.61790562 67.61684322 C280.63985999 72.39610424 280.63844272 77.17514349 280.6301403 81.95443916 C280.62931963 84.24738134 280.63620514 86.54033962 280.65091133 88.83323479 C280.66831911 92.03906006 280.65384438 95.24321668 280.63110352 98.44897461 C280.64279572 99.39719086 280.65448792 100.3454071 280.66653442 101.32235718 C280.60101784 105.85874821 280.52368516 107.83978534 277.62657166 111.49220276 C276.75980301 112.15477585 275.89303436 112.81734894 275 113.5 C274.1234375 114.21800781 273.246875 114.93601562 272.34375 115.67578125 C241.06782035 139.17568993 204.7308352 154.08936071 166 159.5 C164.99815674 159.64139404 164.99815674 159.64139404 163.97607422 159.78564453 C154.94783025 160.87920648 145.83018986 160.74384762 136.75 160.75 C135.40958145 160.75101212 135.40958145 160.75101212 134.04208374 160.75204468 C120.48426575 160.7357863 107.31726943 160.2576164 94 157.5 C92.71851074 157.24259033 92.71851074 157.24259033 91.41113281 156.97998047 C57.28080441 149.9516703 24.02059292 135.80336843 -3 113.5 C-3.86459335 112.83887711 -4.72918671 112.17775421 -5.61997986 111.49659729 C-9.02249012 107.21261967 -8.69677632 103.77492049 -8.63110352 98.44897461 C-8.63825882 97.44029831 -8.64541412 96.43162201 -8.65278625 95.39237976 C-8.66968001 92.06190556 -8.65026701 88.73277596 -8.62890625 85.40234375 C-8.62973481 83.08736561 -8.63219372 80.77238752 -8.63621521 78.45741272 C-8.63907361 73.60774002 -8.62436603 68.75852906 -8.59692383 63.90893555 C-8.56282258 57.6887664 -8.56886553 51.46942198 -8.5875864 45.24921322 C-8.59814758 40.46998708 -8.58922679 35.69095332 -8.57420158 30.91174507 C-8.56901415 28.61799249 -8.56950834 26.32421986 -8.57574654 24.03046989 C-8.58118863 20.82708291 -8.56085533 17.62488267 -8.53344727 14.42163086 C-8.53997314 13.47139038 -8.54649902 12.5211499 -8.55322266 11.54211426 C-8.45969977 5.12315756 -8.45969977 5.12315756 -6.09165955 1.9131012 C-3.83181045 0.38637307 -2.70235805 -0.04222434 0 0 Z " fill="#000000" transform="translate(120,215.5)"/>
</svg>
